<?xml version="1.0" standalone="no"?><!DOCTYPE svg PUBLIC "-//W3C//DTD SVG 1.1//EN" "http://www.w3.org/Graphics/SVG/1.1/DTD/svg11.dtd"><svg t="1635931015976" class="icon" viewBox="0 0 1072 1024" version="1.1" xmlns="http://www.w3.org/2000/svg" p-id="802" xmlns:xlink="http://www.w3.org/1999/xlink" width="134" height="128"><defs><style type="text/css"></style></defs><path d="M920.577057 623.920075a5.63374 5.63374 0 0 1-4.115427-1.718091l-193.651482-193.651482a5.873473 5.873473 0 0 1 0.199778-8.470587L880.088714 276.879039a5.846836 5.846836 0 0 1 8.08435 0.18646L1043.640309 432.532744a5.886792 5.886792 0 0 1 0.759156 7.351831l-118.921188 181.385111a5.740288 5.740288 0 0 1-4.90122 2.650389z" p-id="803"></path><path d="M883.365073 309.93564l129.496104 129.482786-95.627072 145.891219-160.195325-160.208643 126.326293-115.165362m0.665927-61.265255a32.457267 32.457267 0 0 0-21.89567 8.483906L705.069861 400.395122a32.483904 32.483904 0 0 0-1.09212 46.987787l193.651482 193.651482a32.483904 32.483904 0 0 0 50.157598-5.167592l118.867914-181.371793a32.497222 32.497222 0 0 0-4.208656-40.794669l-155.42729-155.467245a32.457267 32.457267 0 0 0-22.987789-9.562707zM631.711377 58.215351l127.285228 127.35182-129.562697 111.875684-153.562695-153.562694 155.826845-85.66481m3.649279-58.215311a32.390674 32.390674 0 0 0-15.635959 3.99556l-193.771348 106.548271a32.497222 32.497222 0 0 0-7.325194 51.449496l186.805755 186.832392a32.470585 32.470585 0 0 0 44.217532 1.611542l161.15426-139.165359a32.497222 32.497222 0 0 0 1.731409-47.573803L658.348445 9.576066A32.443948 32.443948 0 0 0 635.360655 0.053314zM627.95555 546.166474l180.093215 180.093214-163.684781 233.074342-222.193099-222.219737 205.784665-190.947819m0.532742-61.345166a32.417311 32.417311 0 0 0-22.002218 8.577135L370.095417 712.728058a32.497222 32.497222 0 0 0-0.879023 46.801328l254.970011 254.956693a32.483904 32.483904 0 0 0 49.571583-4.328524l188.510528-268.42173a32.497222 32.497222 0 0 0-4.195338-40.794669L651.462763 494.344059a32.364037 32.364037 0 0 0-22.98779-9.522751zM320.284101 238.508343l179.893436 179.893436-203.334056 188.297431-230.011078-230.037715 253.451698-138.153152m3.702552-58.188674a32.403993 32.403993 0 0 0-15.649277 3.99556L16.941175 343.231975a32.510541 32.510541 0 0 0-7.418423 51.516088l263.813517 263.760244a32.497222 32.497222 0 0 0 45.069919 0.865705l233.753587-216.506086a32.510541 32.510541 0 0 0 0.958934-46.881239L346.974443 189.842421a32.52386 32.52386 0 0 0-22.98779-9.522752z" p-id="804"></path></svg>